<?xml version="1.0" encoding="UTF-8"?>
<svg id="Layer_1" xmlns="http://www.w3.org/2000/svg" version="1.1" viewBox="0 0 180 60">
  <!-- Generator: Adobe Illustrator 29.5.1, SVG Export Plug-In . SVG Version: 2.1.0 Build 141)  -->
  <defs>
    <style>
      .st0 {
        fill: #fff;
      }

      .st1 {
        fill: #231f20;
      }

      .st2 {
        fill: #009444;
      }
    </style>
  </defs>
  <g>
    <path d="M76.18,4.58h8.01l-12.57,39.54h-8.01l-4.77-17.34-4.77,17.34h-8.01l-7.44-22.77h8.01l3.64,14.45,5.33-19.7h6.49l5.33,19.7,8.77-31.21Z"/>
    <path class="st1" d="M95.32,26.8l-8.67-.65c-1.1-.08-1.69-1.32-1.07-2.23l1.12-1.65-2.71-.2c-1.1-.08-1.69-1.32-1.07-2.23l2.89-4.23c.62-.91,1.99-.81,2.47.19l1.18,2.45,1.02-1.5c.62-.91,1.99-.81,2.47.19l3.77,7.84c.48.99-.3,2.13-1.4,2.04Z"/>
    <circle class="st2" cx="87.73" cy="32.74" r="13.42"/>
    <path class="st0" d="M94.79,36.89l3.16,3.95c-.35.67-.83,1.24-1.45,1.71-.61.47-1.3.87-2.05,1.18-.76.32-1.55.56-2.37.74-.83.18-1.62.3-2.4.37h-.61c-.19,0-.39-.02-.61-.05-1.68,0-3.19-.31-4.5-.92-1.32-.61-2.42-1.47-3.32-2.55-.89-1.09-1.58-2.34-2.05-3.76-.47-1.42-.71-2.94-.71-4.55,0-1.82.28-3.49.84-5,.56-1.51,1.35-2.8,2.37-3.87,1.02-1.07,2.26-1.9,3.74-2.5,1.47-.6,3.14-.9,5-.9,1.02,0,2,.11,2.95.34.95.23,1.81.58,2.58,1.05.77.47,1.42,1.07,1.95,1.79.53.72.86,1.55,1,2.5.03.14.05.26.05.34v1.45c0,.14-.02.3-.05.47-.18,1.79-.87,3.25-2.08,4.37-1.21,1.12-2.8,1.68-4.77,1.68-.74,0-1.47-.1-2.21-.29-.74-.19-1.44-.46-2.11-.82-.67-.35-1.28-.79-1.84-1.32-.56-.53-1.02-1.11-1.37-1.74-.11.39-.19.77-.26,1.16-.07.39-.11.79-.11,1.21,0,.88.12,1.72.37,2.53.25.81.62,1.52,1.13,2.13.51.61,1.13,1.1,1.87,1.45.74.35,1.58.53,2.53.53,1.09,0,2.11-.22,3.05-.66.95-.44,1.7-1.11,2.26-2.03ZM86.68,26.41c.35.77.89,1.42,1.61,1.95.72.53,1.55.79,2.5.79.53,0,1-.13,1.42-.39.42-.26.63-.66.63-1.18v-.18c0-.05-.02-.1-.05-.13-.11-.56-.43-.97-.97-1.21-.54-.25-1.11-.39-1.71-.42-.04-.03-.08-.05-.13-.05h-.13c-.6-.03-1.18.03-1.74.18-.56.16-1.04.38-1.42.66Z"/>
    <path d="M105.86,26.1c1.73-1.87,3.78-2.8,6.13-2.8,2.51,0,4.42.74,5.73,2.22,1.31,1.48,1.96,3.37,1.96,5.67v11.93h-6.81v-11.01c0-.99-.27-1.74-.8-2.24-.53-.51-1.24-.76-2.12-.76-1.31,0-2.4.56-3.28,1.68v12.33h-6.81v-19.22h6.01v2.2Z"/>
    <path d="M127.56,26.1c1.73-1.87,3.78-2.8,6.13-2.8,2.51,0,4.42.74,5.73,2.22,1.31,1.48,1.96,3.37,1.96,5.67v11.93h-6.81v-11.01c0-.99-.27-1.74-.8-2.24-.53-.51-1.24-.76-2.12-.76-1.31,0-2.4.56-3.28,1.68v12.33h-6.81v-19.22h6.01v2.2Z"/>
  </g>
  <g>
    <path d="M70.58,46.48h5.49l-.09.55h-2.46l-.98,6.18h-.57l.98-6.18h-2.46l.09-.55Z"/>
    <path d="M75.91,49.64c.51-.81,1.24-1.2,2.21-1.14l-.09.56c-.47-.05-.91.05-1.31.32s-.69.61-.88,1.03l-.44,2.81h-.55l.73-4.61h.49l-.16,1.05Z"/>
    <path d="M82.15,52.25c-.56.71-1.26,1.06-2.1,1.06-.67,0-1.19-.23-1.56-.7-.37-.46-.5-1.05-.38-1.76.11-.7.42-1.27.92-1.71s1.08-.66,1.73-.66c.44,0,.81.1,1.12.3s.55.46.71.77l.15-.97h.49l-.73,4.61h-.49l.15-.95ZM78.63,50.89c-.09.58,0,1.04.3,1.39.29.35.69.53,1.19.53.44,0,.85-.12,1.23-.37.37-.25.66-.55.86-.92l.2-1.27c-.08-.36-.26-.66-.56-.9-.29-.24-.65-.37-1.07-.37-.53,0-.99.17-1.4.51s-.66.81-.75,1.39Z"/>
    <path d="M88.31,48.59h.6l-2.83,4.61h-.58l-1.36-4.61h.57l1.15,4,2.44-4Z"/>
    <path d="M88.95,50.88c.12-.75.43-1.34.94-1.76.51-.42,1.07-.63,1.69-.63.41,0,.76.08,1.05.25.29.16.5.38.61.63.12.26.19.55.21.87s-.03.63-.16.94h-3.83c-.05.54.1.95.46,1.23s.8.41,1.32.41c.58,0,1.12-.13,1.61-.38l-.09.55c-.45.22-.99.34-1.61.34-.31,0-.61-.05-.89-.15-.28-.1-.54-.25-.76-.44-.22-.19-.39-.45-.49-.77s-.12-.68-.06-1.08ZM92.89,50.69c.03-.14.04-.29.05-.44,0-.15-.01-.3-.07-.45s-.13-.29-.23-.41c-.1-.12-.24-.22-.42-.29-.19-.07-.4-.11-.64-.11-.48,0-.92.15-1.3.46-.39.3-.64.72-.74,1.25h3.36Z"/>
    <path d="M95.32,46.19h.55l-1.12,7.02h-.55l1.12-7.02Z"/>
    <path d="M99.05,49.7c.12-.7.39-1.31.83-1.83s.93-.9,1.48-1.14c.55-.24,1.12-.36,1.7-.36.69,0,1.28.15,1.78.46l-.09.55c-.43-.31-.97-.47-1.63-.47-.51,0-1.01.1-1.49.3s-.92.53-1.29.98-.62.98-.72,1.59c-.08.49-.06.94.06,1.33.12.39.31.71.57.94.26.23.55.41.88.53.33.12.67.18,1.04.18.69,0,1.31-.17,1.86-.5l-.1.62c-.54.28-1.18.42-1.91.42-.42,0-.83-.08-1.21-.23-.38-.15-.73-.38-1.03-.66-.3-.29-.52-.67-.66-1.14s-.16-1-.06-1.57Z"/>
    <path d="M109.71,50.94c-.12.74-.44,1.32-.98,1.74-.54.42-1.14.63-1.8.63-.3,0-.59-.06-.86-.17-.27-.11-.51-.27-.71-.47-.2-.2-.34-.46-.43-.78-.09-.32-.11-.67-.05-1.04.12-.74.44-1.32.99-1.74.54-.42,1.14-.63,1.8-.63s1.18.22,1.6.67c.42.45.57,1.04.45,1.79ZM105.41,50.92c-.09.57.02,1.03.32,1.36.3.34.72.51,1.24.51s1.03-.17,1.45-.51c.42-.34.68-.81.77-1.4.09-.57-.02-1.02-.32-1.36-.3-.34-.72-.51-1.23-.51-.54,0-1.03.17-1.45.51s-.68.81-.77,1.4Z"/>
    <path d="M114.81,49.37c.6-.59,1.23-.88,1.87-.88.53,0,.92.17,1.18.51s.35.78.26,1.31l-.46,2.89h-.54l.46-2.94c.06-.38,0-.69-.17-.93-.18-.23-.45-.35-.82-.35-.59,0-1.15.3-1.68.91,0,.13,0,.27-.03.41l-.46,2.89h-.55l.47-2.94c.06-.38,0-.69-.18-.93-.18-.23-.45-.35-.81-.35-.61,0-1.19.33-1.76.99l-.51,3.23h-.55l.73-4.61h.49l-.13.79c.21-.23.48-.44.8-.62s.66-.27,1.01-.27.64.08.88.24c.24.16.4.37.5.65Z"/>
    <path d="M120.19,49.57c.55-.72,1.26-1.09,2.11-1.09.65,0,1.17.23,1.54.7.38.46.51,1.05.4,1.76-.11.7-.41,1.27-.91,1.71-.5.44-1.08.66-1.74.66-.44,0-.81-.1-1.11-.3-.3-.2-.52-.47-.66-.79l-.49,3.1h-.55l1.07-6.73h.49l-.15.98ZM123.7,50.91c.1-.57,0-1.03-.29-1.39-.29-.36-.69-.53-1.2-.53-.44,0-.84.12-1.22.37-.38.25-.67.56-.87.93l-.2,1.25c.08.37.27.67.56.91.29.24.65.36,1.07.36.53,0,1-.17,1.4-.51s.65-.8.75-1.39Z"/>
    <path d="M129.15,52.25c-.56.71-1.26,1.06-2.1,1.06-.67,0-1.19-.23-1.56-.7-.37-.46-.5-1.05-.38-1.76.11-.7.42-1.27.92-1.71s1.08-.66,1.73-.66c.44,0,.81.1,1.12.3s.55.46.71.77l.15-.97h.49l-.73,4.61h-.49l.15-.95ZM125.64,50.89c-.09.58,0,1.04.3,1.39.29.35.69.53,1.19.53.44,0,.85-.12,1.23-.37.37-.25.66-.55.86-.92l.2-1.27c-.08-.36-.26-.66-.56-.9-.29-.24-.65-.37-1.07-.37-.53,0-.99.17-1.4.51s-.66.81-.75,1.39Z"/>
    <path d="M132.09,49.45c.59-.64,1.25-.96,1.98-.96.54,0,.95.17,1.24.52.29.35.39.81.31,1.37l-.45,2.83h-.55l.44-2.8c.08-.46,0-.81-.2-1.06-.21-.24-.52-.37-.92-.37-.36,0-.71.11-1.04.32-.34.21-.62.46-.84.75l-.49,3.15h-.55l.73-4.61h.49l-.14.86Z"/>
    <path d="M138.38,52.65l2.37-4.06h.6l-3.19,5.38c-.58.97-1.2,1.45-1.85,1.45-.19,0-.36-.02-.5-.07l.07-.46c.11.03.24.05.38.05.28,0,.53-.1.75-.29s.46-.49.71-.9l.33-.55-1.54-4.61h.55l1.33,4.06Z"/>
  </g>
</svg>